<?xml version="1.0" encoding="utf-8"?>
<!-- Generator: Adobe Illustrator 15.0.2, SVG Export Plug-In . SVG Version: 6.00 Build 0)  -->
<!DOCTYPE svg PUBLIC "-//W3C//DTD SVG 1.1//EN" "http://www.w3.org/Graphics/SVG/1.1/DTD/svg11.dtd">
<svg version="1.1" id="Ebene_1" xmlns="http://www.w3.org/2000/svg" xmlns:xlink="http://www.w3.org/1999/xlink" x="0px" y="0px"
	 width="170.08px" height="170.08px" viewBox="0 0 170.08 170.08" enable-background="new 0 0 170.08 170.08" xml:space="preserve">
<g>
	<g>
		
			<ellipse transform="matrix(0.8006 0.5992 -0.5992 0.8006 79.6478 -46.5935)" fill="#B3B3B3" stroke="#000000" stroke-linecap="round" stroke-linejoin="round" cx="109.827" cy="96.368" rx="1.814" ry="1.864"/>
		<path fill="none" stroke="#000000" stroke-linecap="round" stroke-linejoin="round" d="M108.711,97.861l-3.209,4.289
			L108.711,97.861z"/>
	</g>
	<g>
		<path fill="#B3B3B3" stroke="#000000" stroke-linecap="round" stroke-linejoin="round" d="M114.826,100.094
			c-0.615,0.822-1.766,1.006-2.568,0.404c-0.805-0.6-0.953-1.754-0.338-2.58c0.619-0.824,1.77-1.004,2.57-0.404
			C115.293,98.115,115.443,99.27,114.826,100.094z"/>
		<path fill="none" stroke="#000000" stroke-linecap="round" stroke-linejoin="round" d="M112.258,100.498l-3.209,4.289
			L112.258,100.498z"/>
	</g>
	<g>
		<path fill="#B3B3B3" stroke="#000000" stroke-linecap="round" stroke-linejoin="round" d="M118.23,102.625
			c-0.615,0.822-1.768,1.006-2.568,0.406c-0.805-0.6-0.951-1.756-0.338-2.58c0.619-0.826,1.768-1.006,2.57-0.406
			C118.697,100.646,118.848,101.801,118.23,102.625z"/>
		<path fill="none" stroke="#000000" stroke-linecap="round" stroke-linejoin="round" d="M115.662,103.031l-3.209,4.287
			L115.662,103.031z"/>
	</g>
	<g>
		
			<ellipse transform="matrix(0.8008 0.599 -0.599 0.8008 86.3365 -51.2928)" fill="#B3B3B3" stroke="#000000" stroke-linecap="round" stroke-linejoin="round" cx="120.273" cy="104.138" rx="1.815" ry="1.863"/>
		<path fill="none" stroke="#000000" stroke-linecap="round" stroke-linejoin="round" d="M119.156,105.629l-3.207,4.289
			L119.156,105.629z"/>
	</g>
	<g>
		
			<ellipse transform="matrix(0.8008 0.599 -0.599 0.8008 88.465 -52.7819)" fill="#B3B3B3" stroke="#000000" stroke-linecap="round" stroke-linejoin="round" cx="123.576" cy="106.593" rx="1.815" ry="1.864"/>
		<path fill="none" stroke="#000000" stroke-linecap="round" stroke-linejoin="round" d="M122.461,108.086l-3.209,4.289
			L122.461,108.086z"/>
	</g>
	<g>
		
			<ellipse transform="matrix(0.8007 0.5991 -0.5991 0.8007 19.228 -2.0477)" fill="#B3B3B3" stroke="#000000" stroke-linecap="round" stroke-linejoin="round" cx="12.691" cy="27.873" rx="1.814" ry="1.865"/>
		<path fill="none" stroke="#000000" stroke-linecap="round" stroke-linejoin="round" d="M11.575,29.366l-3.209,4.288L11.575,29.366
			z"/>
	</g>
	<g>
		
			<ellipse transform="matrix(0.8006 0.5992 -0.5992 0.8006 21.4287 -3.5815)" fill="#B3B3B3" stroke="#000000" stroke-linecap="round" stroke-linejoin="round" cx="16.095" cy="30.404" rx="1.814" ry="1.864"/>
		<path fill="none" stroke="#000000" stroke-linecap="round" stroke-linejoin="round" d="M14.979,31.897l-3.209,4.289L14.979,31.897
			z"/>
	</g>
	<g>
		
			<ellipse transform="matrix(0.8006 0.5992 -0.5992 0.8006 23.6813 -5.158)" fill="#B3B3B3" stroke="#000000" stroke-linecap="round" stroke-linejoin="round" cx="19.591" cy="33.004" rx="1.814" ry="1.864"/>
		<path fill="none" stroke="#000000" stroke-linecap="round" stroke-linejoin="round" d="M18.475,34.497l-3.209,4.288L18.475,34.497
			z"/>
	</g>
	<g>
		
			<ellipse transform="matrix(0.8007 0.5991 -0.5991 0.8007 25.8071 -6.6475)" fill="#B3B3B3" stroke="#000000" stroke-linecap="round" stroke-linejoin="round" cx="22.894" cy="35.46" rx="1.814" ry="1.864"/>
		<path fill="none" stroke="#000000" stroke-linecap="round" stroke-linejoin="round" d="M21.778,36.954l-3.209,4.288L21.778,36.954
			z"/>
	</g>
	<g>
		
			<ellipse transform="matrix(0.8007 0.5991 -0.5991 0.8007 28.0959 -8.2496)" fill="#B3B3B3" stroke="#000000" stroke-linecap="round" stroke-linejoin="round" cx="26.447" cy="38.102" rx="1.815" ry="1.864"/>
		<path fill="none" stroke="#000000" stroke-linecap="round" stroke-linejoin="round" d="M25.331,39.595l-3.208,4.289L25.331,39.595
			z"/>
	</g>
	<g>
		
			<ellipse transform="matrix(0.8007 0.5991 -0.5991 0.8007 30.3828 -9.8487)" fill="#B3B3B3" stroke="#000000" stroke-linecap="round" stroke-linejoin="round" cx="29.994" cy="40.74" rx="1.815" ry="1.864"/>
		<path fill="none" stroke="#000000" stroke-linecap="round" stroke-linejoin="round" d="M28.877,42.233l-3.209,4.288L28.877,42.233
			z"/>
	</g>
	<g>
		
			<ellipse transform="matrix(0.8006 0.5992 -0.5992 0.8006 32.5892 -11.3838)" fill="#B3B3B3" stroke="#000000" stroke-linecap="round" stroke-linejoin="round" cx="33.398" cy="43.271" rx="1.814" ry="1.864"/>
		<path fill="none" stroke="#000000" stroke-linecap="round" stroke-linejoin="round" d="M32.281,44.764l-3.208,4.289L32.281,44.764
			z"/>
	</g>
	<g>
		
			<ellipse transform="matrix(0.8007 0.5991 -0.5991 0.8007 35.1966 -12.4423)" fill="#B3B3B3" stroke="#000000" stroke-linecap="round" stroke-linejoin="round" cx="36.297" cy="46.673" rx="1.814" ry="1.864"/>
		<path fill="none" stroke="#000000" stroke-linecap="round" stroke-linejoin="round" d="M35.181,48.167l-3.209,4.289L35.181,48.167
			z"/>
	</g>
	<g>
		
			<ellipse transform="matrix(0.8007 0.5991 -0.5991 0.8007 37.3266 -13.9313)" fill="#B3B3B3" stroke="#000000" stroke-linecap="round" stroke-linejoin="round" cx="39.6" cy="49.13" rx="1.814" ry="1.864"/>
		<path fill="none" stroke="#000000" stroke-linecap="round" stroke-linejoin="round" d="M38.483,50.623l-3.208,4.289L38.483,50.623
			z"/>
	</g>
	<g>
		
			<ellipse transform="matrix(0.8007 0.599 -0.599 0.8007 39.8266 -14.9137)" fill="#B3B3B3" stroke="#000000" stroke-linecap="round" stroke-linejoin="round" cx="42.33" cy="52.406" rx="1.814" ry="1.864"/>
		<path fill="none" stroke="#000000" stroke-linecap="round" stroke-linejoin="round" d="M41.213,53.899l-3.208,4.288L41.213,53.899
			z"/>
	</g>
	<g>
		
			<ellipse transform="matrix(0.8007 0.599 -0.599 0.8007 41.7514 -17.0301)" fill="#B3B3B3" stroke="#000000" stroke-linecap="round" stroke-linejoin="round" cx="46.474" cy="54.241" rx="1.814" ry="1.864"/>
		<path fill="none" stroke="#000000" stroke-linecap="round" stroke-linejoin="round" d="M45.358,55.735l-3.209,4.288L45.358,55.735
			z"/>
	</g>
	<g>
		
			<ellipse transform="matrix(0.8007 0.5991 -0.5991 0.8007 43.9542 -18.5655)" fill="#B3B3B3" stroke="#000000" stroke-linecap="round" stroke-linejoin="round" cx="49.878" cy="56.773" rx="1.814" ry="1.864"/>
		<path fill="none" stroke="#000000" stroke-linecap="round" stroke-linejoin="round" d="M48.761,58.266l-3.208,4.289L48.761,58.266
			z"/>
	</g>
	<g>
		
			<ellipse transform="matrix(0.8006 0.5992 -0.5992 0.8006 46.2169 -20.1427)" fill="#B3B3B3" stroke="#000000" stroke-linecap="round" stroke-linejoin="round" cx="53.374" cy="59.372" rx="1.814" ry="1.865"/>
		<path fill="none" stroke="#000000" stroke-linecap="round" stroke-linejoin="round" d="M52.257,60.866l-3.209,4.288L52.257,60.866
			z"/>
	</g>
	<g>
		
			<ellipse transform="matrix(0.8005 0.5993 -0.5993 0.8005 47.9944 -22.1503)" fill="#B3B3B3" stroke="#000000" stroke-linecap="round" stroke-linejoin="round" cx="57.273" cy="61.026" rx="1.815" ry="1.865"/>
		<path fill="none" stroke="#000000" stroke-linecap="round" stroke-linejoin="round" d="M56.157,62.52l-3.208,4.288L56.157,62.52z"
			/>
	</g>
	<g>
		
			<ellipse transform="matrix(0.8007 0.5991 -0.5991 0.8007 49.8794 -24.2517)" fill="#B3B3B3" stroke="#000000" stroke-linecap="round" stroke-linejoin="round" cx="61.389" cy="62.841" rx="1.815" ry="1.864"/>
		<path fill="none" stroke="#000000" stroke-linecap="round" stroke-linejoin="round" d="M60.273,64.334l-3.208,4.289L60.273,64.334
			z"/>
	</g>
	<g>
		
			<ellipse transform="matrix(0.8006 0.5992 -0.5992 0.8006 52.1809 -25.8533)" fill="#B3B3B3" stroke="#000000" stroke-linecap="round" stroke-linejoin="round" cx="64.937" cy="65.478" rx="1.814" ry="1.865"/>
		<path fill="none" stroke="#000000" stroke-linecap="round" stroke-linejoin="round" d="M63.82,66.972l-3.209,4.288L63.82,66.972z"
			/>
	</g>
	<g>
		
			<ellipse transform="matrix(0.8006 0.5992 -0.5992 0.8006 54.0146 -27.9058)" fill="#B3B3B3" stroke="#000000" stroke-linecap="round" stroke-linejoin="round" cx="68.938" cy="67.207" rx="1.814" ry="1.865"/>
		<path fill="none" stroke="#000000" stroke-linecap="round" stroke-linejoin="round" d="M67.821,68.701l-3.209,4.288L67.821,68.701
			z"/>
	</g>
	<g>
		
			<ellipse transform="matrix(0.8006 0.5992 -0.5992 0.8006 56.2747 -29.4828)" fill="#B3B3B3" stroke="#000000" stroke-linecap="round" stroke-linejoin="round" cx="72.433" cy="69.807" rx="1.814" ry="1.864"/>
		<path fill="none" stroke="#000000" stroke-linecap="round" stroke-linejoin="round" d="M71.316,71.3l-3.208,4.289L71.316,71.3z"/>
	</g>
	<g>
		
			<ellipse transform="matrix(0.8007 0.5991 -0.5991 0.8007 58.3827 -30.9684)" fill="#B3B3B3" stroke="#000000" stroke-linecap="round" stroke-linejoin="round" cx="75.736" cy="72.263" rx="1.815" ry="1.864"/>
		<path fill="none" stroke="#000000" stroke-linecap="round" stroke-linejoin="round" d="M74.62,73.756l-3.208,4.289L74.62,73.756z"
			/>
	</g>
	<g>
		
			<ellipse transform="matrix(0.8007 0.5991 -0.5991 0.8007 60.6281 -31.7646)" fill="#B3B3B3" stroke="#000000" stroke-linecap="round" stroke-linejoin="round" cx="78.051" cy="75.231" rx="1.814" ry="1.864"/>
		<path fill="none" stroke="#000000" stroke-linecap="round" stroke-linejoin="round" d="M76.935,76.725l-3.209,4.288L76.935,76.725
			z"/>
	</g>
	<g>
		
			<ellipse transform="matrix(0.8007 0.5991 -0.5991 0.8007 63.2767 -32.8465)" fill="#B3B3B3" stroke="#000000" stroke-linecap="round" stroke-linejoin="round" cx="81.001" cy="78.671" rx="1.814" ry="1.864"/>
		<path fill="none" stroke="#000000" stroke-linecap="round" stroke-linejoin="round" d="M79.885,80.164l-3.209,4.289L79.885,80.164
			z"/>
	</g>
	<g>
		
			<ellipse transform="matrix(0.8007 0.5991 -0.5991 0.8007 65.1133 -34.8994)" fill="#B3B3B3" stroke="#000000" stroke-linecap="round" stroke-linejoin="round" cx="85.002" cy="80.4" rx="1.815" ry="1.864"/>
		<path fill="none" stroke="#000000" stroke-linecap="round" stroke-linejoin="round" d="M83.886,81.893l-3.209,4.289L83.886,81.893
			z"/>
	</g>
	<g>
		
			<ellipse transform="matrix(0.8005 0.5993 -0.5993 0.8005 67.0348 -36.9984)" fill="#B3B3B3" stroke="#000000" stroke-linecap="round" stroke-linejoin="round" cx="89.095" cy="82.198" rx="1.814" ry="1.864"/>
		<path fill="none" stroke="#000000" stroke-linecap="round" stroke-linejoin="round" d="M87.979,83.69l-3.209,4.288L87.979,83.69z"
			/>
	</g>
	<g>
		
			<ellipse transform="matrix(0.8007 0.5991 -0.5991 0.8007 68.7642 -38.9976)" fill="#B3B3B3" stroke="#000000" stroke-linecap="round" stroke-linejoin="round" cx="92.994" cy="83.851" rx="1.815" ry="1.864"/>
		<path fill="none" stroke="#000000" stroke-linecap="round" stroke-linejoin="round" d="M91.877,85.344l-3.207,4.289L91.877,85.344
			z"/>
	</g>
	<text transform="matrix(0.9626 0 0 1 148.0508 91.3477)" fill="#12491D" font-family="'MyriadPro-Regular'" font-size="11.1159">Ca</text>
	<path fill="none" stroke="#237D26" stroke-miterlimit="10" d="M169.08,87.396c0,6.516-5.059,11.797-11.312,11.797
		c-6.248,0-11.307-5.281-11.307-11.797c0-6.515,5.059-11.799,11.307-11.799C164.021,75.598,169.08,80.882,169.08,87.396z"/>
	<text transform="matrix(0.9626 0 0 1 158.7285 86.2832)" fill="#12491D" font-family="'MyriadPro-Regular'" font-size="8.8927">2+</text>
	<text transform="matrix(0.9626 0 0 1 63.9946 48.0444)" fill="#1D3394" font-family="'MyriadPro-Regular'" font-size="11.1159">Na</text>
	<path fill="none" stroke="#00A0C6" stroke-miterlimit="10" d="M81.112,44.093c0,5.426-4.213,9.823-9.42,9.823
		c-5.202,0-9.415-4.397-9.415-9.823c0-5.425,4.213-9.825,9.415-9.825C76.899,34.269,81.112,38.668,81.112,44.093z"/>
	<text transform="matrix(0.9626 0 0 1 74.6724 42.9805)" fill="#1D3394" font-family="'MyriadPro-Regular'" font-size="8.8927">+</text>
	<text transform="matrix(0.9626 0 0 1 44.9409 31.9272)" fill="#1D3394" font-family="'MyriadPro-Regular'" font-size="11.1159">Na</text>
	<path fill="none" stroke="#00A0C6" stroke-miterlimit="10" d="M62.058,27.976c0,5.426-4.213,9.823-9.42,9.823
		c-5.202,0-9.415-4.397-9.415-9.823c0-5.425,4.213-9.825,9.415-9.825C57.845,18.151,62.058,22.551,62.058,27.976z"/>
	<text transform="matrix(0.9626 0 0 1 55.6187 26.8633)" fill="#1D3394" font-family="'MyriadPro-Regular'" font-size="8.8927">+</text>
	<text transform="matrix(0.9626 0 0 1 87.9648 62.415)" fill="#C2000B" font-family="'MyriadPro-Regular'" font-size="11.1159">Cl</text>
	<path fill="none" stroke="#FE330A" stroke-miterlimit="10" d="M105.082,58.464c0,5.426-4.213,9.823-9.42,9.823
		c-5.203,0-9.416-4.397-9.416-9.823c0-5.425,4.213-9.825,9.416-9.825C100.869,48.639,105.082,53.039,105.082,58.464z"/>
	<text transform="matrix(0.9626 0 0 1 98.6426 57.3511)" fill="#C2000B" font-family="'MyriadPro-Regular'" font-size="8.8927">-</text>
	<text transform="matrix(0.9626 0 0 1 92.8145 137.1582)" fill="#63300F" font-family="'MyriadPro-Regular'" font-size="11.1159">K</text>
	<path fill="none" stroke="#A0642F" stroke-miterlimit="10" d="M106.836,133.207c0,5.426-4.213,9.822-9.42,9.822
		c-5.203,0-9.416-4.396-9.416-9.822s4.213-9.824,9.416-9.824C102.623,123.383,106.836,127.781,106.836,133.207z"/>
	<text transform="matrix(0.9626 0 0 1 98.6172 132.0938)" fill="#4D1F03" font-family="'MyriadPro-Regular'" font-size="8.8927">+</text>
	<g>
		<g>
			<line fill="none" stroke="#A0642F" stroke-miterlimit="10" x1="103.596" y1="125.23" x2="106.93" y2="121.391"/>
			<g>
				<polygon fill="#A0642F" points="108.324,123.568 109.271,118.674 104.559,120.299 				"/>
			</g>
		</g>
	</g>
	<g>
		<g>
			<line fill="none" stroke="#00A0C6" stroke-miterlimit="10" x1="47.297" y1="35.803" x2="43.995" y2="39.668"/>
			<g>
				<polygon fill="#00A0C6" points="42.583,37.503 41.674,42.405 46.375,40.743 				"/>
			</g>
		</g>
	</g>
	<g>
		<g>
			<line fill="none" stroke="#00A0C6" stroke-miterlimit="10" x1="66.59" y1="52.808" x2="63.288" y2="56.673"/>
			<g>
				<polygon fill="#00A0C6" points="61.876,54.508 60.967,59.41 65.667,57.747 				"/>
			</g>
		</g>
	</g>
	<g>
		<g>
			<line fill="none" stroke="#FE330A" stroke-miterlimit="10" x1="89.988" y1="66.406" x2="86.686" y2="70.271"/>
			<g>
				<polygon fill="#FE330A" points="85.275,68.106 84.366,73.008 89.066,71.346 				"/>
			</g>
		</g>
	</g>
	<g>
		<text transform="matrix(0.9626 0 0 1 54.0073 110.2793)" fill="#63300F" font-family="'MyriadPro-Regular'" font-size="11.1159">K</text>
		<path fill="none" stroke="#A0642F" stroke-miterlimit="10" d="M68.028,106.328c0,5.426-4.213,9.822-9.42,9.822
			c-5.202,0-9.415-4.396-9.415-9.822s4.213-9.824,9.415-9.824C63.815,96.504,68.028,100.902,68.028,106.328z"/>
		<text transform="matrix(0.9626 0 0 1 59.8091 105.2148)" fill="#4D1F03" font-family="'MyriadPro-Regular'" font-size="8.8927">+</text>
		<g>
			<g>
				<line fill="none" stroke="#A0642F" stroke-miterlimit="10" x1="64.789" y1="98.352" x2="68.123" y2="94.512"/>
				<g>
					<polygon fill="#A0642F" points="69.516,96.689 70.464,91.795 65.751,93.42 					"/>
				</g>
			</g>
		</g>
	</g>
	<g>
		<text transform="matrix(0.9626 0 0 1 31.7388 95.0107)" fill="#63300F" font-family="'MyriadPro-Regular'" font-size="11.1159">K</text>
		<path fill="none" stroke="#A0642F" stroke-miterlimit="10" d="M45.759,91.059c0,5.426-4.213,9.824-9.42,9.824
			c-5.202,0-9.415-4.398-9.415-9.824c0-5.424,4.213-9.824,9.415-9.824C41.546,81.235,45.759,85.635,45.759,91.059z"/>
		<text transform="matrix(0.9626 0 0 1 37.5405 89.9473)" fill="#4D1F03" font-family="'MyriadPro-Regular'" font-size="8.8927">+</text>
		<g>
			<g>
				<line fill="none" stroke="#A0642F" stroke-miterlimit="10" x1="42.52" y1="83.083" x2="45.854" y2="79.244"/>
				<g>
					<polygon fill="#A0642F" points="47.248,81.42 48.196,76.526 43.483,78.151 					"/>
				</g>
			</g>
		</g>
	</g>
	<g>
		<text transform="matrix(0.9626 0 0 1 9.5796 79.3389)" fill="#63300F" font-family="'MyriadPro-Regular'" font-size="11.1159">K</text>
		<path fill="none" stroke="#A0642F" stroke-miterlimit="10" d="M23.6,75.388c0,5.426-4.213,9.823-9.42,9.823
			c-5.202,0-9.415-4.397-9.415-9.823c0-5.425,4.213-9.825,9.415-9.825C19.387,65.563,23.6,69.963,23.6,75.388z"/>
		<text transform="matrix(0.9626 0 0 1 15.3813 74.2749)" fill="#4D1F03" font-family="'MyriadPro-Regular'" font-size="8.8927">+</text>
		<g>
			<g>
				<line fill="none" stroke="#A0642F" stroke-miterlimit="10" x1="21.271" y1="68.924" x2="25.254" y2="65.352"/>
				<g>
					<polygon fill="#A0642F" points="26.367,67.685 27.917,62.946 23.039,63.973 					"/>
				</g>
			</g>
		</g>
	</g>
	<g>
		<path fill="#237D26" d="M115.715,123.701c-0.006-5.301,8.59-15.324,12.762-17.803c5.389-3.293,5.832,0.475,4.305,5.348
			c-1.049,4.344-5.502,11.381-9.408,14.1c-2.447,1.633-7.195,2.627-6.918-1.938"/>
		<g>
			<path fill="#12491D" d="M116.197,123.643c0.215-3.697,2.633-7.021,4.783-9.887c0.746-0.996,9.768-11.898,11.865-7.875
				c1.584,3.033-1.873,9.16-3.268,11.598c-1.24,2.17-2.785,4.164-4.496,5.979c-2.146,2.273-8.025,4.975-8.143-0.178
				c-0.008-0.316-0.977-0.123-0.967,0.26c0.117,5.154,5.729,3.445,8.484,1.369c4.604-3.471,10.16-12,9.566-18.076
				c-0.48-4.93-6.135-1.051-8.127,0.617c-4.477,3.744-10.309,10.189-10.666,16.311C115.207,124.166,116.178,123.975,116.197,123.643
				L116.197,123.643z"/>
		</g>
	</g>
	<g>
		<path fill="#237D26" d="M94.268,109.955c5.139-1.297,12.73-12.1,14.107-16.748c1.865-6.041-1.895-5.537-6.24-2.859
			c-3.951,2.09-9.676,8.141-11.348,12.594c-0.982,2.773-0.773,7.621,3.578,6.225"/>
		<g>
			<path fill="#12491D" d="M94.344,110.238c5.428-1.719,9.363-7.615,12.191-12.213c1.475-2.395,5.584-10.688-0.381-9.775
				c-5.961,0.91-11.453,7.33-14.494,12.023c-2.174,3.357-3.213,10.559,2.779,9.176c0.596-0.139,0.438-0.701-0.15-0.564
				c-6.838,1.578-1.809-8.502-0.471-10.387c1.023-1.439,12.445-13.478,14.461-8.682c1.271,3.023-2.65,8.248-4.213,10.564
				c-2.328,3.449-5.725,7.98-9.873,9.293C93.617,109.855,93.76,110.422,94.344,110.238L94.344,110.238z"/>
		</g>
	</g>
	<text transform="matrix(0.9626 0 0 1 111.1191 76.0547)" fill="#12491D" font-family="'MyriadPro-Regular'" font-size="11.1159">Ca</text>
	<path fill="none" stroke="#237D26" stroke-miterlimit="10" d="M132.148,72.104c0,6.516-5.059,11.797-11.312,11.797
		c-6.248,0-11.307-5.281-11.307-11.797c0-6.515,5.059-11.799,11.307-11.799C127.09,60.305,132.148,65.589,132.148,72.104z"/>
	<text transform="matrix(0.9626 0 0 1 121.7969 70.9907)" fill="#12491D" font-family="'MyriadPro-Regular'" font-size="8.8927">2+</text>
	<g>
		<g>
			<line fill="none" stroke="#008837" stroke-miterlimit="10" x1="113.814" y1="80.979" x2="110.512" y2="84.845"/>
			<g>
				<polygon fill="#008837" points="109.102,82.68 108.191,87.582 112.893,85.918 				"/>
			</g>
		</g>
	</g>
	<g>
		<g>
			<path fill="#237D26" d="M119.609,143.846c4.545-8.301,8.861-16.775,14.213-24.598c5.557-8.123,12.701-14.832,20.428-20.861
				c0.518-0.402-0.262-0.742-0.643-0.445c-7.51,5.859-14.312,12.307-19.91,20.043c-5.82,8.043-10.258,17.064-15.012,25.748
				C118.422,144.213,119.404,144.221,119.609,143.846L119.609,143.846z"/>
		</g>
	</g>
	<g>
		<g>
			<path fill="#237D26" d="M118.814,144.4c2.59-1.418,5.227-2.926,8.229-3.16c0.557-0.045,0.734-0.795,0.076-0.744
				c-3.191,0.25-5.984,1.789-8.742,3.299C117.801,144.109,118.32,144.672,118.814,144.4L118.814,144.4z"/>
		</g>
	</g>
	<g>
		<g>
			<path fill="#237D26" d="M120.266,135.73c-0.002-0.037-0.008-0.074-0.018-0.107c-0.018-0.035-0.047-0.057-0.088-0.061
				c-0.004-0.002-0.008-0.002-0.01-0.002c-0.213-0.033-0.779,0.025-0.873,0.273c-0.361,0.943-0.244,2.279-0.348,3.273
				c-0.154,1.492-0.184,3.324-0.895,4.684c-0.076,0.146,0.824,0.08,0.953-0.168c0.633-1.209,0.684-2.807,0.838-4.139
				c0.135-1.158-0.014-2.725,0.404-3.818c-0.291,0.092-0.582,0.182-0.873,0.273c-0.07-0.045-0.09-0.029-0.059,0.051
				C119.324,136.186,120.297,135.99,120.266,135.73L120.266,135.73z"/>
		</g>
	</g>
	<g>
		
			<ellipse transform="matrix(0.8006 0.5992 -0.5992 0.8006 103.9034 -63.6227)" fill="#B3B3B3" stroke="#000000" stroke-linecap="round" stroke-linejoin="round" cx="147.54" cy="124.296" rx="1.814" ry="1.864"/>
		<path fill="none" stroke="#000000" stroke-linecap="round" stroke-linejoin="round" d="M146.424,125.789l-3.209,4.287
			L146.424,125.789z"/>
	</g>
	<g>
		
			<ellipse transform="matrix(0.8006 0.5992 -0.5992 0.8006 106.1907 -65.2222)" fill="#B3B3B3" stroke="#000000" stroke-linecap="round" stroke-linejoin="round" cx="151.087" cy="126.933" rx="1.814" ry="1.864"/>
		<path fill="none" stroke="#000000" stroke-linecap="round" stroke-linejoin="round" d="M149.971,128.426l-3.209,4.289
			L149.971,128.426z"/>
	</g>
	<g>
		<path fill="#B3B3B3" stroke="#000000" stroke-linecap="round" stroke-linejoin="round" d="M155.943,130.551
			c-0.615,0.824-1.766,1.008-2.568,0.406c-0.803-0.6-0.951-1.754-0.338-2.58c0.619-0.824,1.77-1.006,2.57-0.404
			C156.41,128.574,156.561,129.727,155.943,130.551z"/>
		<path fill="none" stroke="#000000" stroke-linecap="round" stroke-linejoin="round" d="M153.375,130.957l-3.209,4.289
			L153.375,130.957z"/>
	</g>
	<g>
		<path fill="#B3B3B3" stroke="#000000" stroke-linecap="round" stroke-linejoin="round" d="M159.439,133.15
			c-0.615,0.824-1.768,1.008-2.568,0.406c-0.805-0.6-0.951-1.754-0.338-2.58c0.619-0.824,1.768-1.006,2.57-0.404
			C159.906,131.172,160.057,132.326,159.439,133.15z"/>
		<path fill="none" stroke="#000000" stroke-linecap="round" stroke-linejoin="round" d="M156.871,133.557l-3.209,4.289
			L156.871,133.557z"/>
	</g>
	<g>
		
			<ellipse transform="matrix(0.8006 0.5992 -0.5992 0.8006 112.7723 -69.823)" fill="#B3B3B3" stroke="#000000" stroke-linecap="round" stroke-linejoin="round" cx="161.29" cy="134.521" rx="1.814" ry="1.864"/>
		<path fill="none" stroke="#000000" stroke-linecap="round" stroke-linejoin="round" d="M160.174,136.014l-3.209,4.289
			L160.174,136.014z"/>
	</g>
	<g>
		<path fill="#B3B3B3" stroke="#000000" stroke-linecap="round" stroke-linejoin="round" d="M112.805,118.195
			c0.621-0.818,1.773-0.996,2.572-0.391s0.941,1.762,0.32,2.584c-0.621,0.82-1.773,0.994-2.572,0.389
			C112.326,120.17,112.184,119.018,112.805,118.195z"/>
		<path fill="none" stroke="#000000" stroke-linecap="round" stroke-linejoin="round" d="M115.377,117.805l3.236-4.268
			L115.377,117.805z"/>
	</g>
	<g>
		
			<ellipse transform="matrix(-0.7968 -0.6042 0.6042 -0.7968 128.4774 276.4662)" fill="#B3B3B3" stroke="#000000" stroke-linecap="round" stroke-linejoin="round" cx="110.722" cy="116.632" rx="1.815" ry="1.863"/>
		<path fill="none" stroke="#000000" stroke-linecap="round" stroke-linejoin="round" d="M111.846,115.146l3.236-4.27
			L111.846,115.146z"/>
	</g>
	<g>
		
			<ellipse transform="matrix(-0.7971 -0.6039 0.6039 -0.7971 123.9972 269.8265)" fill="#B3B3B3" stroke="#000000" stroke-linecap="round" stroke-linejoin="round" cx="107.333" cy="114.08" rx="1.814" ry="1.863"/>
		<path fill="none" stroke="#000000" stroke-linecap="round" stroke-linejoin="round" d="M108.457,112.594l3.236-4.268
			L108.457,112.594z"/>
	</g>
	<g>
		
			<ellipse transform="matrix(-0.7971 -0.6039 0.6039 -0.7971 119.3252 263.0144)" fill="#B3B3B3" stroke="#000000" stroke-linecap="round" stroke-linejoin="round" cx="103.853" cy="111.459" rx="1.814" ry="1.865"/>
		<path fill="none" stroke="#000000" stroke-linecap="round" stroke-linejoin="round" d="M104.979,109.973l3.234-4.27
			L104.979,109.973z"/>
	</g>
	<g>
		
			<ellipse transform="matrix(-0.7969 -0.6041 0.6041 -0.7969 114.8638 256.5829)" fill="#B3B3B3" stroke="#000000" stroke-linecap="round" stroke-linejoin="round" cx="100.564" cy="108.982" rx="1.814" ry="1.864"/>
		<path fill="none" stroke="#000000" stroke-linecap="round" stroke-linejoin="round" d="M101.689,107.496l3.236-4.268
			L101.689,107.496z"/>
	</g>
	<g>
		
			<ellipse transform="matrix(-0.8014 -0.5981 0.5981 -0.8014 92.9563 223.9734)" fill="#B3B3B3" stroke="#000000" stroke-linecap="round" stroke-linejoin="round" cx="83.663" cy="96.554" rx="1.814" ry="1.864"/>
		<path fill="none" stroke="#000000" stroke-linecap="round" stroke-linejoin="round" d="M84.779,95.061l3.204-4.293L84.779,95.061z
			"/>
	</g>
	<g>
		<path fill="#B3B3B3" stroke="#000000" stroke-linecap="round" stroke-linejoin="round" d="M78.063,93.639
			c0.613-0.826,1.766-1.01,2.569-0.408c0.804,0.598,0.952,1.752,0.338,2.578c-0.615,0.826-1.766,1.008-2.569,0.408
			C77.598,95.615,77.446,94.463,78.063,93.639z"/>
		<path fill="none" stroke="#000000" stroke-linecap="round" stroke-linejoin="round" d="M80.632,93.23l3.202-4.293L80.632,93.23z"
			/>
	</g>
	<g>
		
			<ellipse transform="matrix(-0.8015 -0.598 0.598 -0.8015 80.4219 212.6909)" fill="#B3B3B3" stroke="#000000" stroke-linecap="round" stroke-linejoin="round" cx="75.513" cy="92.997" rx="1.814" ry="1.864"/>
		<path fill="none" stroke="#000000" stroke-linecap="round" stroke-linejoin="round" d="M76.629,91.504l3.201-4.293L76.629,91.504z
			"/>
	</g>
	<g>
		
			<ellipse transform="matrix(-0.8013 -0.5983 0.5983 -0.8013 74.0785 207.0124)" fill="#B3B3B3" stroke="#000000" stroke-linecap="round" stroke-linejoin="round" cx="71.417" cy="91.204" rx="1.813" ry="1.864"/>
		<path fill="none" stroke="#000000" stroke-linecap="round" stroke-linejoin="round" d="M72.534,89.711l3.203-4.293L72.534,89.711z
			"/>
	</g>
	<g>
		
			<ellipse transform="matrix(-0.8012 -0.5984 0.5984 -0.8012 71.1339 199.529)" fill="#B3B3B3" stroke="#000000" stroke-linecap="round" stroke-linejoin="round" cx="68.708" cy="87.949" rx="1.815" ry="1.865"/>
		<path fill="none" stroke="#000000" stroke-linecap="round" stroke-linejoin="round" d="M69.825,86.455l3.202-4.292L69.825,86.455z
			"/>
	</g>
	<g>
		
			<ellipse transform="matrix(-0.8014 -0.5981 0.5981 -0.8014 68.1083 191.8607)" fill="#B3B3B3" stroke="#000000" stroke-linecap="round" stroke-linejoin="round" cx="65.905" cy="84.624" rx="1.814" ry="1.864"/>
		<path fill="none" stroke="#000000" stroke-linecap="round" stroke-linejoin="round" d="M67.021,83.13l3.202-4.293L67.021,83.13z"
			/>
	</g>
	<g>
		
			<ellipse transform="matrix(-0.8013 -0.5983 0.5983 -0.8013 63.2664 184.9941)" fill="#B3B3B3" stroke="#000000" stroke-linecap="round" stroke-linejoin="round" cx="62.355" cy="81.99" rx="1.815" ry="1.864"/>
		<path fill="none" stroke="#000000" stroke-linecap="round" stroke-linejoin="round" d="M63.471,80.497l3.202-4.293L63.471,80.497z
			"/>
	</g>
	<g>
		<path fill="#B3B3B3" stroke="#000000" stroke-linecap="round" stroke-linejoin="round" d="M57.496,78.377
			c0.613-0.824,1.765-1.009,2.569-0.408c0.803,0.598,0.951,1.752,0.338,2.579c-0.616,0.826-1.767,1.008-2.569,0.409
			C57.031,80.357,56.877,79.202,57.496,78.377z"/>
		<path fill="none" stroke="#000000" stroke-linecap="round" stroke-linejoin="round" d="M60.065,77.969l3.202-4.293L60.065,77.969z
			"/>
	</g>
	<g>
		
			<ellipse transform="matrix(-0.8014 -0.5982 0.5982 -0.8014 52.3486 172.7227)" fill="#B3B3B3" stroke="#000000" stroke-linecap="round" stroke-linejoin="round" cx="54.853" cy="77.669" rx="1.815" ry="1.865"/>
		<path fill="none" stroke="#000000" stroke-linecap="round" stroke-linejoin="round" d="M55.968,76.175l3.203-4.292L55.968,76.175z
			"/>
	</g>
	<g>
		
			<ellipse transform="matrix(-0.8013 -0.5983 0.5983 -0.8013 47.8473 166.3269)" fill="#B3B3B3" stroke="#000000" stroke-linecap="round" stroke-linejoin="round" cx="51.548" cy="75.217" rx="1.814" ry="1.864"/>
		<path fill="none" stroke="#000000" stroke-linecap="round" stroke-linejoin="round" d="M52.663,73.723l3.203-4.293L52.663,73.723z
			"/>
	</g>
	<g>
		
			<ellipse transform="matrix(-0.8014 -0.5982 0.5982 -0.8014 42.5175 162.0156)" fill="#B3B3B3" stroke="#000000" stroke-linecap="round" stroke-linejoin="round" cx="48.16" cy="73.948" rx="1.815" ry="1.864"/>
		<path fill="none" stroke="#000000" stroke-linecap="round" stroke-linejoin="round" d="M49.274,72.454l3.204-4.292L49.274,72.454z
			"/>
	</g>
	<g>
		
			<ellipse transform="matrix(-0.8013 -0.5983 0.5983 -0.8013 36.1343 156.2365)" fill="#B3B3B3" stroke="#000000" stroke-linecap="round" stroke-linejoin="round" cx="44.013" cy="72.117" rx="1.815" ry="1.865"/>
		<path fill="none" stroke="#000000" stroke-linecap="round" stroke-linejoin="round" d="M45.128,70.623l3.203-4.293L45.128,70.623z
			"/>
	</g>
	<g>
		<path fill="#B3B3B3" stroke="#000000" stroke-linecap="round" stroke-linejoin="round" d="M39.153,68.504
			c0.613-0.825,1.765-1.01,2.568-0.409c0.804,0.599,0.952,1.753,0.34,2.58c-0.618,0.825-1.766,1.008-2.569,0.409
			C38.688,70.482,38.536,69.329,39.153,68.504z"/>
		<path fill="none" stroke="#000000" stroke-linecap="round" stroke-linejoin="round" d="M41.721,68.095l3.203-4.293L41.721,68.095z
			"/>
	</g>
	<g>
		
			<ellipse transform="matrix(-0.8014 -0.5982 0.5982 -0.8014 26.7698 142.876)" fill="#B3B3B3" stroke="#000000" stroke-linecap="round" stroke-linejoin="round" cx="37.108" cy="66.993" rx="1.815" ry="1.864"/>
		<path fill="none" stroke="#000000" stroke-linecap="round" stroke-linejoin="round" d="M38.222,65.499l3.204-4.292L38.222,65.499z
			"/>
	</g>
	<g>
		<path fill="#B3B3B3" stroke="#000000" stroke-linecap="round" stroke-linejoin="round" d="M31.751,64.258
			c0.614-0.824,1.766-1.01,2.568-0.409c0.805,0.598,0.953,1.752,0.34,2.58c-0.618,0.825-1.767,1.007-2.569,0.409
			C31.288,66.237,31.134,65.083,31.751,64.258z"/>
		<path fill="none" stroke="#000000" stroke-linecap="round" stroke-linejoin="round" d="M34.32,63.85l3.203-4.294L34.32,63.85z"/>
	</g>
	<g>
		
			<ellipse transform="matrix(-0.8014 -0.5982 0.5982 -0.8014 17.4551 129.6021)" fill="#B3B3B3" stroke="#000000" stroke-linecap="round" stroke-linejoin="round" cx="30.247" cy="61.903" rx="1.815" ry="1.865"/>
		<path fill="none" stroke="#000000" stroke-linecap="round" stroke-linejoin="round" d="M31.362,60.408l3.202-4.293L31.362,60.408z
			"/>
	</g>
	<g>
		
			<ellipse transform="matrix(-0.8013 -0.5983 0.5983 -0.8013 12.6295 122.7323)" fill="#B3B3B3" stroke="#000000" stroke-linecap="round" stroke-linejoin="round" cx="26.697" cy="59.269" rx="1.815" ry="1.864"/>
		<path fill="none" stroke="#000000" stroke-linecap="round" stroke-linejoin="round" d="M27.811,57.775l3.204-4.292L27.811,57.775z
			"/>
	</g>
	<g>
		
			<ellipse transform="matrix(-0.8013 -0.5983 0.5983 -0.8013 9.5589 115.0533)" fill="#B3B3B3" stroke="#000000" stroke-linecap="round" stroke-linejoin="round" cx="23.886" cy="55.939" rx="1.815" ry="1.865"/>
		<path fill="none" stroke="#000000" stroke-linecap="round" stroke-linejoin="round" d="M25.001,54.445l3.203-4.293L25.001,54.445z
			"/>
	</g>
	<g>
		<path fill="#B3B3B3" stroke="#000000" stroke-linecap="round" stroke-linejoin="round" d="M18.934,52.257
			c0.615-0.823,1.765-1.009,2.568-0.408c0.804,0.599,0.954,1.754,0.34,2.58c-0.618,0.825-1.767,1.009-2.569,0.409
			C18.469,54.237,18.317,53.083,18.934,52.257z"/>
		<path fill="none" stroke="#000000" stroke-linecap="round" stroke-linejoin="round" d="M21.502,51.849l3.203-4.293L21.502,51.849z
			"/>
	</g>
	<g>
		
			<ellipse transform="matrix(-0.8012 -0.5984 0.5984 -0.8012 0.315 101.8854)" fill="#B3B3B3" stroke="#000000" stroke-linecap="round" stroke-linejoin="round" cx="17.082" cy="50.89" rx="1.814" ry="1.864"/>
		<path fill="none" stroke="#000000" stroke-linecap="round" stroke-linejoin="round" d="M18.197,49.396l3.203-4.292L18.197,49.396z
			"/>
	</g>
	<g>
		
			<ellipse transform="matrix(-0.8014 -0.5982 0.5982 -0.8014 -4.1907 95.4462)" fill="#B3B3B3" stroke="#000000" stroke-linecap="round" stroke-linejoin="round" cx="13.752" cy="48.419" rx="1.815" ry="1.864"/>
		<path fill="none" stroke="#000000" stroke-linecap="round" stroke-linejoin="round" d="M14.867,46.925l3.204-4.292L14.867,46.925z
			"/>
	</g>
	<g>
		
			<ellipse transform="matrix(-0.8013 -0.5983 0.5983 -0.8013 -9.018 88.5768)" fill="#B3B3B3" stroke="#000000" stroke-linecap="round" stroke-linejoin="round" cx="10.202" cy="45.786" rx="1.814" ry="1.865"/>
		<path fill="none" stroke="#000000" stroke-linecap="round" stroke-linejoin="round" d="M11.318,44.292l3.203-4.293L11.318,44.292z
			"/>
	</g>
	<g>
		<path fill="#B3B3B3" stroke="#000000" stroke-linecap="round" stroke-linejoin="round" d="M5.342,42.172
			c0.615-0.824,1.765-1.009,2.568-0.409c0.803,0.599,0.953,1.754,0.34,2.58c-0.618,0.825-1.768,1.008-2.569,0.409
			C4.877,44.152,4.725,42.998,5.342,42.172z"/>
		<path fill="none" stroke="#000000" stroke-linecap="round" stroke-linejoin="round" d="M7.911,41.764l3.203-4.293L7.911,41.764z"
			/>
	</g>
	<g>
		
			<ellipse transform="matrix(-0.8011 -0.5985 0.5985 -0.8011 -18.3979 75.2108)" fill="#B3B3B3" stroke="#000000" stroke-linecap="round" stroke-linejoin="round" cx="3.297" cy="40.662" rx="1.814" ry="1.864"/>
		<path fill="none" stroke="#000000" stroke-linecap="round" stroke-linejoin="round" d="M4.412,39.168l3.203-4.292L4.412,39.168z"
			/>
	</g>
	<g>
		
			<ellipse transform="matrix(-0.7981 -0.6026 0.6026 -0.7981 184.4241 356.3508)" fill="#B3B3B3" stroke="#000000" stroke-linecap="round" stroke-linejoin="round" cx="151.924" cy="147.272" rx="1.813" ry="1.864"/>
		<path fill="none" stroke="#000000" stroke-linecap="round" stroke-linejoin="round" d="M153.047,145.785l3.229-4.273
			L153.047,145.785z"/>
	</g>
	<g>
		<path fill="#B3B3B3" stroke="#000000" stroke-linecap="round" stroke-linejoin="round" d="M146.941,143.525
			c0.619-0.82,1.771-1,2.57-0.395c0.801,0.604,0.945,1.758,0.326,2.582c-0.623,0.82-1.773,0.998-2.572,0.393
			C146.467,145.502,146.32,144.348,146.941,143.525z"/>
		<path fill="none" stroke="#000000" stroke-linecap="round" stroke-linejoin="round" d="M149.512,143.131l3.229-4.273
			L149.512,143.131z"/>
	</g>
	<g>
		
			<ellipse transform="matrix(-0.7978 -0.6029 0.6029 -0.7978 175.0149 342.839)" fill="#B3B3B3" stroke="#000000" stroke-linecap="round" stroke-linejoin="round" cx="144.996" cy="142.072" rx="1.814" ry="1.864"/>
		<path fill="none" stroke="#000000" stroke-linecap="round" stroke-linejoin="round" d="M146.119,140.584l3.229-4.273
			L146.119,140.584z"/>
	</g>
	<g>
		<path fill="#B3B3B3" stroke="#000000" stroke-linecap="round" stroke-linejoin="round" d="M140.064,138.363
			c0.619-0.822,1.771-1,2.572-0.395c0.799,0.602,0.943,1.76,0.322,2.582c-0.619,0.822-1.771,0.998-2.57,0.395
			C139.588,140.338,139.443,139.186,140.064,138.363z"/>
		<path fill="none" stroke="#000000" stroke-linecap="round" stroke-linejoin="round" d="M142.637,137.969l3.227-4.273
			L142.637,137.969z"/>
	</g>
	<g>
		
			<ellipse transform="matrix(-0.7981 -0.6026 0.6026 -0.7981 165.9839 329.5967)" fill="#B3B3B3" stroke="#000000" stroke-linecap="round" stroke-linejoin="round" cx="138.221" cy="136.985" rx="1.813" ry="1.864"/>
		<path fill="none" stroke="#000000" stroke-linecap="round" stroke-linejoin="round" d="M139.344,135.498l3.229-4.275
			L139.344,135.498z"/>
	</g>
	<g>
		<path fill="#237D26" d="M132.258,136.666c5.246-0.76,13.908-10.725,15.754-15.209c2.479-5.814-1.314-5.701-5.91-3.484
			c-4.146,1.672-10.463,7.102-12.584,11.359c-1.264,2.658-1.553,7.5,2.918,6.561"/>
		<g>
			<path fill="#12491D" d="M132.334,136.949c5.613-1.145,10.24-6.818,13.502-11.123c1.719-2.27,6.383-9.822,0.447-9.535
				c-5.838,0.285-12.572,6.244-15.742,10.674c-2.176,3.043-4.252,10.029,1.838,9.234c0.498-0.064,0.775-0.699,0.111-0.613
				c-3.729,0.486-3.533-2.742-2.957-5.053c0.562-2.264,2.381-4.168,3.912-5.822c1.305-1.408,13.328-11.537,14.832-6.584
				c0.963,3.174-3.863,8.393-5.619,10.439c-2.678,3.121-6.289,6.965-10.475,7.818C131.582,136.506,131.746,137.068,132.334,136.949
				L132.334,136.949z"/>
		</g>
	</g>
	<g>
		<path fill="#237D26" d="M83.705,102.348c0.17-5.299,9.096-15.029,13.346-17.366c5.496-3.111,5.812,0.669,4.125,5.487
			c-1.193,4.309-5.879,11.191-9.873,13.779c-2.5,1.551-7.278,2.385-6.85-2.168"/>
		<g>
			<path fill="#12491D" d="M84.188,102.289c0.337-3.686,2.868-6.93,5.111-9.721c0.836-1.041,10.154-11.548,12.125-7.443
				c1.494,3.111-2.156,9.05-3.656,11.482c-1.312,2.127-2.926,4.068-4.697,5.822c-2.15,2.131-8.188,4.949-8.134-0.408
				c0.004-0.412-0.963-0.209-0.967,0.117c-0.052,5.104,5.455,3.793,8.347,1.76c5.223-3.672,9.896-11.307,10.246-17.744
				c0.279-5.197-6.471-1.004-8.145,0.303c-4.588,3.584-10.639,9.855-11.197,15.949C83.185,102.809,84.157,102.623,84.188,102.289
				L84.188,102.289z"/>
		</g>
	</g>
</g>
</svg>
